# xmcd
# 
# Track frame offsets:
#     150
#     13810
#     25790
#     36676
#     48818
#     60621
#     70334
#     83164
#     96365
#     109713
#     121447
#     133361
#     143833
#     157213
#     169051
#     183675
#     194239
#     206506
#     224408
#     236337
# 
# Disc length: 3306
# 
# Revision: 1
# Processed by: cddbd v1.5.2PL0 Copyright (c) Steve Scherf et al.
# Submitted via: fre:ac v1.0.27
# 
DISCID=370ce814
DTITLE=Various Artist - 100 Hits - Blues [CD3]
DYEAR=0
DGENRE=Blues
TTITLE0=T-Bone Walker - Call It Stormy Monday But Tuesday Is Just As Bad
TTITLE1=Big Joe Turner - Honey Hush
TTITLE2=Willie Mabon - You're A Fool
TTITLE3=Otis Blackwel - Daddy Rollin' Stone
TTITLE4=Memphis Slim - The Come Back
TTITLE5=T-Bone Walker - Party Girl
TTITLE6=Floyd Dixon - Hole In The Wall
TTITLE7=Howlin' Wolf - Moanin' At Midnight
TTITLE8=Little Junior's Blue Flames - Fussin' And Fightin' Blues
TTITLE9=Freddie King - Hide Away
TTITLE10=Willie Nix - Truckin' Little Woman
TTITLE11=James Cotton - Straighten Up Baby
TTITLE12=Howlin' Wolf - The Wolf Is At Your Door
TTITLE13=Freddie King - I'm Tore Down
TTITLE14=Muddy Waters - Rock Me
TTITLE15=Memphis Slim - How Long
TTITLE16=Howlin' Wolf - How Many More Years
TTITLE17=Sonny Terry and Brownie McGhee - Livin' With The Blues
TTITLE18=Snooks Eaglin - By The Water
TTITLE19=Freddie King - San-Ho-Zay
EXTD=
EXTT0=
EXTT1=
EXTT2=
EXTT3=
EXTT4=
EXTT5=
EXTT6=
EXTT7=
EXTT8=
EXTT9=
EXTT10=
EXTT11=
EXTT12=
EXTT13=
EXTT14=
EXTT15=
EXTT16=
EXTT17=
EXTT18=
EXTT19=
PLAYORDER=
